<svg width="12" height="17" viewBox="0 0 12 17" fill="none" xmlns="http://www.w3.org/2000/svg">
<path d="M8.42215 16.6405C7.58266 16.9045 6.75471 16.9384 5.93828 16.7422C5.13233 16.526 4.42055 16.1292 3.80295 15.5518C3.18536 14.9745 2.73979 14.2508 2.46625 13.3808L0.243257 6.23036C-0.0206826 5.39087 -0.0698375 4.56772 0.0957963 3.76089C0.271894 2.93401 0.630954 2.20893 1.17297 1.58567C1.72545 0.942344 2.42144 0.488712 3.26092 0.224772C4.10041 -0.0391676 4.92073 -0.0706581 5.72189 0.130301C6.52305 0.33126 7.23243 0.720411 7.85002 1.29776C8.46282 1.85984 8.9036 2.56825 9.17233 3.423L9.50346 4.47617C9.52265 4.53723 9.50172 4.57735 9.44067 4.59655L6.87642 5.40276C6.81537 5.42196 6.77524 5.40103 6.75605 5.33998L6.42492 4.2868C6.26656 3.78311 5.96189 3.40089 5.51092 3.14015C5.07522 2.8746 4.61315 2.81861 4.12473 2.97218C3.57525 3.14494 3.21549 3.4677 3.04546 3.94047C2.87063 4.39797 2.85999 4.87093 3.01356 5.35936L5.25945 12.5026C5.43701 13.0674 5.74124 13.4749 6.17214 13.7252C6.61831 13.9706 7.07798 14.019 7.55115 13.8702C8.03957 13.7167 8.38407 13.3987 8.58462 12.9163C8.79565 12.4139 8.82438 11.9185 8.67081 11.4301L8.33969 10.3769C8.32049 10.3158 8.34142 10.2757 8.40247 10.2565L10.9896 9.4431C11.0507 9.4239 11.0908 9.44483 11.11 9.50589L11.4411 10.5591C11.7146 11.4291 11.7557 12.2799 11.5644 13.1116C11.3883 13.9385 11.0316 14.6712 10.4944 15.3097C9.95238 15.933 9.26163 16.3766 8.42215 16.6405Z" fill="#123B31"/>
</svg>
