<svg width="29" height="29" viewBox="0 0 29 29" fill="none" xmlns="http://www.w3.org/2000/svg">
<path d="M15 6.8125C11 6.8125 7.8125 10.0625 7.8125 14C7.8125 18 11 21.1875 15 21.1875C18.9375 21.1875 22.1875 18 22.1875 14C22.1875 10.0625 18.9375 6.8125 15 6.8125ZM15 18.6875C12.4375 18.6875 10.3125 16.625 10.3125 14C10.3125 11.4375 12.375 9.375 15 9.375C17.5625 9.375 19.625 11.4375 19.625 14C19.625 16.625 17.5625 18.6875 15 18.6875ZM24.125 6.5625C24.125 5.625 23.375 4.875 22.4375 4.875C21.5 4.875 20.75 5.625 20.75 6.5625C20.75 7.5 21.5 8.25 22.4375 8.25C23.375 8.25 24.125 7.5 24.125 6.5625ZM28.875 8.25C28.75 6 28.25 4 26.625 2.375C25 0.75 23 0.25 20.75 0.125C18.4375 0 11.5 0 9.1875 0.125C6.9375 0.25 5 0.75 3.3125 2.375C1.6875 4 1.1875 6 1.0625 8.25C0.9375 10.5625 0.9375 17.5 1.0625 19.8125C1.1875 22.0625 1.6875 24 3.3125 25.6875C5 27.3125 6.9375 27.8125 9.1875 27.9375C11.5 28.0625 18.4375 28.0625 20.75 27.9375C23 27.8125 25 27.3125 26.625 25.6875C28.25 24 28.75 22.0625 28.875 19.8125C29 17.5 29 10.5625 28.875 8.25ZM25.875 22.25C25.4375 23.5 24.4375 24.4375 23.25 24.9375C21.375 25.6875 17 25.5 15 25.5C12.9375 25.5 8.5625 25.6875 6.75 24.9375C5.5 24.4375 4.5625 23.5 4.0625 22.25C3.3125 20.4375 3.5 16.0625 3.5 14C3.5 12 3.3125 7.625 4.0625 5.75C4.5625 4.5625 5.5 3.625 6.75 3.125C8.5625 2.375 12.9375 2.5625 15 2.5625C17 2.5625 21.375 2.375 23.25 3.125C24.4375 3.5625 25.375 4.5625 25.875 5.75C26.625 7.625 26.4375 12 26.4375 14C26.4375 16.0625 26.625 20.4375 25.875 22.25Z" fill="white"/>
</svg>
